<svg width="334" height="363" viewBox="0 0 334 363" fill="none" xmlns="http://www.w3.org/2000/svg">
<path opacity="0.2" d="M122 118C130.284 118 137 111.06 137 102.5C137 93.9396 130.284 87 122 87C113.716 87 107 93.9396 107 102.5C107 111.06 113.716 118 122 118Z" fill="#FF4B26"/>
<path opacity="0.2" d="M251.5 280C260.06 280 267 273.06 267 264.5C267 255.94 260.06 249 251.5 249C242.94 249 236 255.94 236 264.5C236 273.06 242.94 280 251.5 280Z" fill="#FF4B26"/>
<path opacity="0.2" d="M246 117C251.523 117 256 111.851 256 105.5C256 99.1487 251.523 94 246 94C240.477 94 236 99.1487 236 105.5C236 111.851 240.477 117 246 117Z" fill="#FF4B26"/>
<path opacity="0.2" d="M121.5 201C114.677 201 108.006 199.006 102.333 195.27C96.6594 191.534 92.2374 186.224 89.6262 180.011C87.015 173.799 86.3317 166.962 87.6629 160.367C88.9941 153.772 92.2798 147.713 97.1047 142.958C101.93 138.203 108.077 134.965 114.769 133.653C121.462 132.341 128.399 133.015 134.703 135.588C141.007 138.161 146.395 142.519 150.186 148.111C153.977 153.702 156 160.275 156 167C155.99 176.014 152.352 184.656 145.884 191.03C139.416 197.405 130.647 200.99 121.5 201ZM121.5 135.615C115.202 135.615 109.044 137.456 103.807 140.905C98.5702 144.353 94.4883 149.255 92.078 154.99C89.6676 160.724 89.0369 167.035 90.2657 173.123C91.4945 179.211 94.5275 184.803 98.9813 189.192C103.435 193.581 109.11 196.571 115.287 197.782C121.465 198.993 127.868 198.371 133.687 195.996C139.506 193.62 144.48 189.598 147.979 184.436C151.478 179.275 153.346 173.207 153.346 167C153.336 158.679 149.978 150.702 144.008 144.818C138.038 138.935 129.943 135.625 121.5 135.615V135.615Z" fill="#2F2E41"/>
<path opacity="0.2" d="M251.5 363C244.677 363 238.006 361.006 232.333 357.27C226.659 353.534 222.237 348.224 219.626 342.011C217.015 335.799 216.332 328.962 217.663 322.367C218.994 315.772 222.28 309.713 227.105 304.958C231.93 300.203 238.077 296.965 244.769 295.653C251.462 294.341 258.399 295.015 264.703 297.588C271.007 300.161 276.395 304.519 280.186 310.111C283.977 315.702 286 322.275 286 329C285.99 338.014 282.352 346.656 275.884 353.03C269.416 359.405 260.647 362.99 251.5 363ZM251.5 297.615C245.202 297.615 239.044 299.456 233.807 302.905C228.57 306.353 224.488 311.255 222.078 316.99C219.668 322.724 219.037 329.035 220.266 335.123C221.495 341.211 224.527 346.803 228.981 351.192C233.435 355.581 239.11 358.571 245.287 359.782C251.465 360.993 257.868 360.371 263.687 357.996C269.506 355.62 274.48 351.598 277.979 346.436C281.478 341.275 283.346 335.207 283.346 329C283.336 320.679 279.978 312.702 274.008 306.818C268.038 300.935 259.943 297.625 251.5 297.615V297.615Z" fill="#2F2E41"/>
<path opacity="0.2" d="M246 178C240.858 178 235.831 176.475 231.555 173.618C227.28 170.761 223.947 166.701 221.979 161.95C220.011 157.199 219.496 151.971 220.5 146.928C221.503 141.884 223.979 137.251 227.615 133.615C231.251 129.979 235.884 127.503 240.928 126.5C245.971 125.496 251.199 126.011 255.95 127.979C260.701 129.947 264.761 133.279 267.618 137.555C270.475 141.831 272 146.858 272 152C271.992 158.893 269.25 165.502 264.376 170.376C259.502 175.251 252.893 177.992 246 178ZM246 128C241.253 128 236.613 129.408 232.666 132.045C228.72 134.682 225.643 138.43 223.827 142.816C222.01 147.201 221.535 152.027 222.461 156.682C223.387 161.338 225.673 165.614 229.029 168.971C232.386 172.327 236.662 174.613 241.318 175.539C245.973 176.465 250.799 175.99 255.184 174.173C259.57 172.357 263.318 169.28 265.955 165.334C268.592 161.387 270 156.747 270 152C269.993 145.637 267.462 139.537 262.963 135.037C258.463 130.538 252.363 128.007 246 128V128Z" fill="#2F2E41"/>
<circle opacity="0.2" cx="44" cy="89" r="43.5" stroke="#FF0000"/>
<path opacity="0.2" d="M216.5 251C216.5 275.03 197.243 294.5 173.5 294.5C149.757 294.5 130.5 275.03 130.5 251C130.5 226.97 149.757 207.5 173.5 207.5C197.243 207.5 216.5 226.97 216.5 251Z" stroke="#FF0000"/>
<path opacity="0.2" d="M219.5 94C219.5 111.39 205.18 125.5 187.5 125.5C169.82 125.5 155.5 111.39 155.5 94C155.5 76.6103 169.82 62.5 187.5 62.5C205.18 62.5 219.5 76.6103 219.5 94Z" stroke="#FF0000"/>
<path opacity="0.2" d="M203.5 44C203.5 68.0298 184.243 87.5 160.5 87.5C136.757 87.5 117.5 68.0298 117.5 44C117.5 19.9702 136.757 0.5 160.5 0.5C184.243 0.5 203.5 19.9702 203.5 44Z" stroke="#4F46E5"/>
<circle opacity="0.2" cx="290" cy="206" r="43.5" stroke="#4F46E5"/>
<circle opacity="0.2" cx="275.5" cy="61.5" r="32" stroke="#4F46E5"/>
</svg>
