<svg width="81" height="85" viewBox="0 0 81 85" fill="none" xmlns="http://www.w3.org/2000/svg">
<path opacity="0.2" d="M51.4905 55.1055C49.7315 55.2942 48.4636 56.9206 48.6585 58.7382C48.8534 60.5559 50.4374 61.8764 52.1964 61.6878C53.9554 61.4992 55.2233 59.8728 55.0284 58.0551C54.8335 56.2375 53.2495 54.9169 51.4905 55.1055Z" fill="#FF4B26"/>
<path opacity="0.2" d="M20.3048 23.6567C18.4871 23.8516 17.1716 25.4831 17.3666 27.3007C17.5615 29.1184 19.193 30.4338 21.0106 30.2389C22.8283 30.044 24.1437 28.4125 23.9488 26.5949C23.7539 24.7772 22.1224 23.4617 20.3048 23.6567Z" fill="#FF4B26"/>
<path opacity="0.2" d="M25.184 58.1414C24.0114 58.2671 23.178 59.4623 23.3226 60.8109C23.4672 62.1595 24.5351 63.1508 25.7077 63.025C26.8804 62.8992 27.7138 61.7041 27.5692 60.3555C27.4246 59.0069 26.3567 58.0156 25.184 58.1414Z" fill="#FF4B26"/>
<path opacity="0.2" d="M49.7063 37.4707C51.1551 37.3153 52.6168 37.5869 53.9065 38.2509C55.1963 38.915 56.2561 39.9418 56.952 41.2015C57.6479 42.4612 57.9486 43.8972 57.8162 45.3279C57.6837 46.7586 57.124 48.1198 56.2078 49.2393C55.2916 50.3588 54.06 51.1863 52.6689 51.6172C51.2778 52.0482 49.7895 52.0632 48.3924 51.6603C46.9953 51.2574 45.752 50.4548 44.8197 49.3539C43.8875 48.2531 43.3082 46.9034 43.155 45.4755C42.952 43.5613 43.5277 41.6435 44.7559 40.1428C45.984 38.6421 47.7643 37.6811 49.7063 37.4707ZM51.1951 51.3539C52.5325 51.2105 53.7979 50.6794 54.8314 49.828C55.8649 48.9765 56.62 47.8428 57.0012 46.5702C57.3824 45.2976 57.3726 43.9434 56.9731 42.6787C56.5735 41.414 55.8022 40.2957 54.7566 39.4651C53.711 38.6346 52.438 38.1291 51.0988 38.0126C49.7595 37.8962 48.4141 38.1739 47.2326 38.8108C46.0511 39.4477 45.0866 40.4151 44.4611 41.5906C43.8356 42.7662 43.5772 44.0971 43.7186 45.4151C43.9101 47.1817 44.8048 48.799 46.2064 49.9123C47.608 51.0257 49.4021 51.5441 51.1951 51.3539L51.1951 51.3539Z" fill="#2F2E41"/>
<path opacity="0.2" d="M18.4148 6.03315C19.8636 5.87778 21.3253 6.1493 22.615 6.81338C23.9048 7.47745 24.9646 8.50426 25.6605 9.76394C26.3564 11.0236 26.6571 12.4596 26.5247 13.8903C26.3922 15.321 25.8325 16.6822 24.9163 17.8017C24.0001 18.9212 22.7685 19.7487 21.3774 20.1797C19.9863 20.6106 18.498 20.6256 17.1009 20.2228C15.7037 19.8199 14.4605 19.0173 13.5282 17.9164C12.596 16.8155 12.0167 15.4658 11.8635 14.038C11.6605 12.1237 12.2362 10.2059 13.4644 8.70521C14.6925 7.20453 16.4728 6.24357 18.4148 6.03315ZM19.9036 19.9163C21.241 19.7729 22.5064 19.2419 23.5399 18.3904C24.5734 17.5389 25.3284 16.4052 25.7097 15.1326C26.0909 13.8601 26.0811 12.5058 25.6816 11.2411C25.282 9.97643 24.5107 8.8581 23.4651 8.02755C22.4195 7.19699 21.1465 6.69152 19.8073 6.57506C18.468 6.45859 17.1226 6.73636 15.9411 7.37324C14.7596 8.01012 13.7951 8.9775 13.1696 10.1531C12.5441 11.3286 12.2857 12.6595 12.427 13.9775C12.6186 15.7441 13.5133 17.3614 14.9149 18.4748C16.3165 19.5881 18.1106 20.1066 19.9036 19.9163L19.9036 19.9163Z" fill="#2F2E41"/>
<path opacity="0.2" d="M23.7948 45.1892C24.8867 45.0721 25.9888 45.2814 26.9617 45.7907C27.9346 46.2999 28.7347 47.0862 29.2607 48.0502C29.7867 49.0141 30.0151 50.1124 29.9169 51.2061C29.8187 52.2999 29.3985 53.3399 28.7092 54.1948C28.0199 55.0497 27.0926 55.681 26.0446 56.0088C24.9965 56.3367 23.8748 56.3464 22.8212 56.0367C21.7676 55.727 20.8295 55.1119 20.1256 54.2691C19.4216 53.4263 18.9834 52.3937 18.8663 51.3018C18.711 49.838 19.1426 48.3723 20.0666 47.2264C20.9906 46.0804 22.3314 45.3478 23.7948 45.1892ZM24.9333 55.8057C25.9412 55.6976 26.8944 55.2931 27.6724 54.6433C28.4504 53.9935 29.0182 53.1276 29.3041 52.155C29.5899 51.1825 29.5809 50.1471 29.2783 49.1796C28.9757 48.2122 28.393 47.3562 27.6039 46.72C26.8147 46.0837 25.8547 45.6958 24.8451 45.6051C23.8355 45.5145 22.8217 45.7253 21.9319 46.2109C21.0421 46.6964 20.3162 47.4349 19.8462 48.333C19.3761 49.2311 19.1829 50.2484 19.2909 51.2563C19.4374 52.6072 20.1136 53.8448 21.1714 54.6977C22.2292 55.5506 23.5821 55.9491 24.9333 55.8057L24.9333 55.8057Z" fill="#2F2E41"/>
<circle opacity="0.2" cx="68.7127" cy="59.4871" r="8.89613" transform="rotate(173.879 68.7127 59.4871)" stroke="#FF0000"/>
<path opacity="0.2" d="M28.7876 28.9754C28.2631 24.0848 31.7571 19.7098 36.5783 19.1928C41.3995 18.6758 45.7416 22.2104 46.2661 27.101C46.7906 31.9916 43.2966 36.3666 38.4754 36.8836C33.6542 37.4006 29.3121 33.8659 28.7876 28.9754Z" stroke="#FF0000"/>
<path opacity="0.2" d="M31.7253 62.3796C31.3531 58.9089 33.9097 55.7755 37.4536 55.3955C40.9975 55.0154 44.1603 57.5355 44.5325 61.0062C44.9047 64.477 42.3481 67.6103 38.8042 67.9904C35.2603 68.3704 32.0975 65.8504 31.7253 62.3796Z" stroke="#FF0000"/>
<path opacity="0.2" d="M36.2612 72.6319C35.7368 67.7413 39.2307 63.3663 44.0519 62.8493C48.8731 62.3322 53.2153 65.8669 53.7397 70.7575C54.2642 75.6481 50.7703 80.0231 45.9491 80.5401C41.1278 81.0571 36.7857 77.5224 36.2612 72.6319Z" stroke="#4F46E5"/>
<circle opacity="0.2" cx="13.8147" cy="40.2458" r="8.89613" transform="rotate(173.879 13.8147 40.2458)" stroke="#4F46E5"/>
<circle opacity="0.2" cx="20.1839" cy="70.5974" r="6.44033" transform="rotate(173.879 20.1839 70.5974)" stroke="#4F46E5"/>
</svg>
