<svg width="345" height="373" viewBox="0 0 345 373" fill="none" xmlns="http://www.w3.org/2000/svg">
<path opacity="0.2" d="M218.903 248.381C210.622 248.617 204.107 255.745 204.351 264.302C204.595 272.859 211.506 279.604 219.787 279.368C228.068 279.132 234.583 272.003 234.339 263.446C234.094 254.889 227.183 248.144 218.903 248.381Z" fill="#FF4B26"/>
<path opacity="0.2" d="M84.8339 90.1408C76.277 90.385 69.5382 97.5197 69.7824 106.077C70.0266 114.634 77.1613 121.372 85.7182 121.128C94.2752 120.884 101.014 113.749 100.77 105.192C100.526 96.6354 93.3908 89.8966 84.8339 90.1408Z" fill="#FF4B26"/>
<path opacity="0.2" d="M94.9817 252.918C89.4611 253.075 85.1327 258.349 85.3139 264.698C85.4951 271.047 90.1173 276.066 95.6379 275.908C101.158 275.751 105.487 270.476 105.306 264.128C105.125 257.779 100.502 252.76 94.9817 252.918Z" fill="#FF4B26"/>
<path opacity="0.2" d="M217.035 165.4C223.855 165.205 230.58 167.008 236.357 170.581C242.135 174.154 246.707 179.335 249.494 185.471C252.282 191.607 253.16 198.421 252.017 205.051C250.875 211.682 247.763 217.831 243.076 222.722C238.388 227.613 232.336 231.025 225.684 232.527C219.032 234.03 212.078 233.555 205.703 231.162C199.329 228.77 193.818 224.567 189.869 219.086C185.921 213.605 183.71 207.092 183.519 200.37C183.272 191.36 186.662 182.617 192.945 176.061C199.229 169.505 207.892 165.671 217.035 165.4ZM218.9 230.758C225.196 230.578 231.298 228.563 236.435 224.966C241.571 221.37 245.511 216.354 247.757 210.552C250.003 204.751 250.453 198.425 249.051 192.375C247.65 186.324 244.458 180.821 239.881 176.561C235.304 172.3 229.546 169.474 223.337 168.44C217.127 167.406 210.744 168.21 204.995 170.75C199.246 173.291 194.39 177.453 191.039 182.712C187.688 187.971 185.994 194.09 186.171 200.295C186.418 208.612 190.003 216.49 196.138 222.201C202.274 227.912 210.46 230.989 218.9 230.758L218.9 230.758Z" fill="#2F2E41"/>
<path opacity="0.2" d="M82.4662 7.17454C89.2869 6.97988 96.0113 8.78286 101.789 12.3555C107.567 15.9281 112.139 21.1098 114.926 27.2455C117.713 33.3812 118.591 40.1951 117.449 46.8258C116.306 53.4564 113.195 59.6059 108.507 64.4966C103.82 69.3873 97.7676 72.7995 91.1154 74.3018C84.4632 75.8041 77.5099 75.3289 71.135 72.9364C64.7601 70.5439 59.2499 66.3416 55.3011 60.8607C51.3522 55.3799 49.1421 48.8667 48.9503 42.1449C48.7034 33.134 52.0935 24.3916 58.3768 17.8356C64.6601 11.2796 73.3234 7.44556 82.4662 7.17454ZM84.3314 72.5326C90.6274 72.3529 96.7296 70.3373 101.866 66.7407C107.003 63.1441 110.943 58.1281 113.189 52.3269C115.435 46.5257 115.885 40.1998 114.483 34.1493C113.081 28.0988 109.89 22.5955 105.313 18.3351C100.736 14.0747 94.978 11.2487 88.7685 10.2144C82.5589 9.18016 76.1761 9.9841 70.4271 12.5246C64.6781 15.065 59.8212 19.2279 56.4705 24.4868C53.1199 29.7457 51.426 35.8644 51.6031 42.0692C51.8501 50.3863 55.4345 58.2645 61.5701 63.9755C67.7058 69.6865 75.8914 72.7638 84.3314 72.5325L84.3314 72.5326Z" fill="#2F2E41"/>
<path opacity="0.2" d="M93.2415 191.942C98.3817 191.796 103.45 193.176 107.805 195.91C112.161 198.644 115.608 202.608 117.71 207.301C119.813 211.994 120.477 217.205 119.618 222.275C118.759 227.345 116.416 232.046 112.885 235.785C109.354 239.523 104.794 242.13 99.781 243.277C94.7682 244.424 89.5278 244.058 84.7227 242.227C79.9176 240.395 75.7636 237.18 72.7859 232.987C69.8082 228.795 68.1405 223.814 67.9938 218.673C67.8049 211.783 70.3571 205.099 75.0903 200.087C79.8235 195.076 86.3512 192.147 93.2415 191.942ZM94.6678 241.922C99.4126 241.787 104.011 240.247 107.881 237.499C111.751 234.75 114.719 230.915 116.409 226.48C118.1 222.044 118.437 217.207 117.379 212.58C116.32 207.953 113.914 203.743 110.463 200.484C107.012 197.225 102.672 195.062 97.992 194.269C93.3119 193.476 88.5019 194.089 84.1701 196.03C79.8382 197.971 76.1793 201.152 73.6558 205.173C71.1323 209.193 69.8576 213.872 69.993 218.616C70.1818 224.977 72.8856 231.002 77.5115 235.371C82.1373 239.74 88.3072 242.096 94.6678 241.922L94.6678 241.922Z" fill="#2F2E41"/>
<circle opacity="0.2" cx="297.698" cy="275.144" r="43.5" transform="rotate(178.365 297.698 275.144)" stroke="#FF0000"/>
<path opacity="0.2" d="M120.647 118.13C119.962 94.1105 138.656 74.0989 162.389 73.4215C186.122 72.7442 205.927 91.6572 206.612 115.677C207.298 139.697 188.604 159.709 164.871 160.386C141.137 161.063 121.333 142.151 120.647 118.13Z" stroke="#FF0000"/>
<path opacity="0.2" d="M122.127 275.152C121.631 257.77 135.542 243.257 153.215 242.752C170.889 242.248 185.605 255.944 186.101 273.326C186.597 290.709 172.686 305.222 155.013 305.727C137.339 306.231 122.623 292.535 122.127 275.152Z" stroke="#FF0000"/>
<path opacity="0.2" d="M139.547 324.675C138.862 300.655 157.555 280.644 181.289 279.966C205.022 279.289 224.827 298.202 225.512 322.222C226.198 346.242 207.504 366.254 183.771 366.931C160.037 367.608 140.233 348.695 139.547 324.675Z" stroke="#4F46E5"/>
<circle opacity="0.2" cx="48.461" cy="165.209" r="43.5" transform="rotate(178.365 48.461 165.209)" stroke="#4F46E5"/>
<circle opacity="0.2" cx="67.0768" cy="309.236" r="32" transform="rotate(178.365 67.0768 309.236)" stroke="#4F46E5"/>
</svg>
