<svg width="151" height="165" viewBox="0 0 151 165" fill="none" xmlns="http://www.w3.org/2000/svg">
<path opacity="0.2" d="M55.4532 54.0729C59.168 54.0914 62.1948 50.9947 62.2139 47.1562C62.2331 43.3176 59.2372 40.1909 55.5225 40.1724C51.8078 40.1539 48.7809 43.2506 48.7618 47.0892C48.7427 50.9277 51.7385 54.0544 55.4532 54.0729Z" fill="#FF4B26"/>
<path opacity="0.2" d="M113.16 127.004C116.998 127.023 120.126 123.927 120.145 120.088C120.164 116.25 117.068 113.122 113.229 113.103C109.391 113.084 106.263 116.18 106.244 120.019C106.225 123.858 109.321 126.985 113.16 127.004Z" fill="#FF4B26"/>
<path opacity="0.2" d="M111.058 53.9015C113.535 53.9138 115.554 51.6151 115.568 48.7671C115.582 45.9192 113.586 43.6005 111.11 43.5881C108.633 43.5758 106.614 45.8745 106.6 48.7225C106.586 51.5704 108.582 53.8891 111.058 53.9015Z" fill="#FF4B26"/>
<path opacity="0.2" d="M55.0438 91.2895C51.9841 91.2743 48.9976 90.3652 46.4619 88.6773C43.9262 86.9894 41.9552 84.5985 40.7982 81.8068C39.6412 79.0152 39.3501 75.9483 39.9617 72.9938C40.5734 70.0394 42.0602 67.3302 44.2344 65.2088C46.4085 63.0874 49.1722 61.6491 52.1761 61.0758C55.1799 60.5025 58.2889 60.8199 61.1099 61.9879C63.931 63.1559 66.3373 65.122 68.0247 67.6377C69.7121 70.1533 70.6047 73.1054 70.5897 76.1208C70.5649 80.1628 68.9143 84.0298 65.9998 86.8736C63.0854 89.7173 59.1453 91.3054 55.0438 91.2895ZM55.1898 61.9707C52.3655 61.9566 49.6004 62.7682 47.2444 64.3029C44.8884 65.8376 43.0471 68.0263 41.9535 70.5925C40.8598 73.1586 40.5629 75.9868 41.1003 78.7195C41.6377 81.4521 42.9853 83.9664 44.9726 85.9445C46.9599 87.9226 49.4977 89.2757 52.265 89.8325C55.0324 90.3893 57.905 90.1249 60.5196 89.0727C63.1342 88.0206 65.3734 86.2279 66.9541 83.9214C68.5347 81.6149 69.3858 78.8982 69.3996 76.1148C69.4139 72.3837 67.9259 68.7992 65.2619 66.1476C62.598 63.4959 58.9757 61.9938 55.1898 61.9707L55.1898 61.9707Z" fill="#2F2E41"/>
<path opacity="0.2" d="M112.974 164.222C109.915 164.206 106.928 163.297 104.393 161.609C101.857 159.921 99.8859 157.531 98.7289 154.739C97.5718 151.947 97.2807 148.88 97.8924 145.926C98.504 142.971 99.9909 140.262 102.165 138.141C104.339 136.019 107.103 134.581 110.107 134.008C113.111 133.435 116.22 133.752 119.041 134.92C121.862 136.088 124.268 138.054 125.955 140.57C127.643 143.085 128.535 146.037 128.52 149.053C128.496 153.095 126.845 156.962 123.93 159.806C121.016 162.649 117.076 164.237 112.974 164.222ZM113.12 134.903C110.296 134.889 107.531 135.7 105.175 137.235C102.819 138.77 100.978 140.958 99.8841 143.525C98.7905 146.091 98.4936 148.919 99.031 151.652C99.5684 154.384 100.916 156.899 102.903 158.877C104.891 160.855 107.428 162.208 110.196 162.765C112.963 163.321 115.836 163.057 118.45 162.005C121.065 160.953 123.304 159.16 124.885 156.853C126.465 154.547 127.316 151.83 127.33 149.047C127.345 145.316 125.857 141.731 123.193 139.08C120.529 136.428 116.906 134.926 113.12 134.903L113.12 134.903Z" fill="#2F2E41"/>
<path opacity="0.2" d="M110.922 81.2542C108.616 81.2427 106.365 80.5477 104.454 79.2571C102.544 77.9665 101.058 76.1383 100.187 74.0036C99.3148 71.8688 99.0956 69.5235 99.5567 67.2642C100.018 65.0049 101.138 62.9331 102.777 61.3108C104.416 59.6884 106.499 58.5884 108.762 58.1498C111.026 57.7112 113.369 57.9538 115.495 58.8468C117.621 59.7398 119.434 61.2432 120.706 63.1668C121.977 65.0904 122.65 67.3479 122.638 69.6537C122.62 72.7447 121.375 75.7019 119.179 77.8767C116.982 80.0515 114.013 81.2661 110.922 81.2542ZM111.034 58.8339C108.905 58.8233 106.821 59.4441 105.046 60.6178C103.27 61.7915 101.882 63.4654 101.058 65.4278C100.234 67.3902 100.01 69.553 100.414 71.6426C100.819 73.7322 101.835 75.6549 103.332 77.1675C104.83 78.68 106.742 79.7145 108.828 80.1402C110.913 80.5658 113.078 80.3635 115.049 79.5587C117.019 78.754 118.707 77.383 119.898 75.6191C121.089 73.8553 121.731 71.7777 121.742 69.6493C121.753 66.796 120.631 64.055 118.624 62.0275C116.616 59.9999 113.887 58.8514 111.034 58.8339L111.034 58.8339Z" fill="#2F2E41"/>
<circle opacity="0.2" cx="20.5422" cy="40.895" r="19.2301" transform="rotate(0.285362 20.5422 40.895)" stroke="#FF0000"/>
<path opacity="0.2" d="M97.2544 113.921C97.2014 124.546 88.6441 133.108 78.1529 133.056C67.6618 133.004 59.1901 124.357 59.243 113.731C59.296 103.106 67.8533 94.5438 78.3445 94.5961C88.8356 94.6483 97.3073 103.295 97.2544 113.921Z" stroke="#FF0000"/>
<path opacity="0.2" d="M98.9509 43.5276C98.9128 51.1689 92.5885 57.3452 84.8087 57.3065C77.029 57.2677 70.7664 51.0287 70.8045 43.3874C70.8426 35.7461 77.1669 29.5697 84.9467 29.6085C92.7264 29.6472 98.989 35.8863 98.9509 43.5276Z" stroke="#FF0000"/>
<path opacity="0.2" d="M91.8877 21.0715C91.8347 31.6973 83.2774 40.259 72.7862 40.2067C62.2951 40.1545 53.8234 31.508 53.8763 20.8822C53.9293 10.2565 62.4866 1.69477 72.9778 1.74702C83.4689 1.79927 91.9406 10.4458 91.8877 21.0715Z" stroke="#4F46E5"/>
<circle opacity="0.2" cx="130.589" cy="93.9079" r="19.2301" transform="rotate(0.285362 130.589 93.9079)" stroke="#4F46E5"/>
<circle opacity="0.2" cx="124.41" cy="29.0808" r="14.0734" transform="rotate(0.285362 124.41 29.0808)" stroke="#4F46E5"/>
</svg>
