<svg width="129" height="153" viewBox="0 0 129 153" fill="none" xmlns="http://www.w3.org/2000/svg">
<path d="M1.99215 22.5322H2.28992L2.58769 24.17L3.10878 25.6588L4.22542 27.2965L8.24531 31.3164L21.5705 37.4952L34.8957 40.994L50.082 42.855L65.2682 43.8228V109.332H50.082L28.7914 105.908L19.7095 102.781L10.6275 99.0591L0.503296 90.4238L1.99215 22.5322Z" fill="url(#paint0_linear_1013_9870)"/>
<path d="M65.2767 43.5242L73.8376 43.7103L82.3985 44.4919L90.9594 45.2736L99.5203 46.6508L116.344 52.0106L122.672 55.8816L128.999 61.5393V129.58L124.98 123.624L118.578 119.158L106.816 114.468L95.0537 112.16L80.1652 110.15L65.2767 109.331V43.5242Z" fill="url(#paint1_linear_1013_9870)"/>
<path d="M6.75362 18.514L9.28444 14.3452L13.9004 10.5182L21.0472 7.2867L28.194 5.0974L35.3407 3.50364L43.1124 2.22456L50.8841 1.24323L50.884 9.87866L43.5602 10.4877L40.0471 11.2661L36.5341 11.7467L29.508 13.75L22.4819 15.4556L15.2132 18.697L8.24225 24.6183L6.75351 21.1195L6.75362 18.514Z" fill="#FED7AA"/>
<path d="M124.468 134.329L121.96 138.511L117.365 142.363L110.235 145.634L103.101 147.862L95.9625 149.494L88.1979 150.815L80.4317 151.838L80.3849 143.203L87.7054 142.554L91.2141 141.757L94.7245 141.258L101.74 139.216L108.756 137.473L116.007 134.192L122.946 128.233L124.454 131.724L124.468 134.329Z" fill="#EA580C"/>
<path d="M15.5306 26.2073L19.4822 24.3228L22.6507 23.3651L27.5731 21.6635L32.502 20.7172L37.4346 19.6068L42.8013 18.7283L48.1699 18.0656L48.1699 26.2566L43.1624 26.8029L38.3093 27.4557L28.6143 29.4602L23.6076 30.8704L19.4822 32.4911L16.0177 30.9372L14.1365 29.8624L12.2554 28.4899L15.5306 26.2073Z" fill="#FED7AA"/>
<path d="M115.636 126.684L111.695 128.59L108.532 129.565L103.618 131.293L98.6947 132.266L93.7682 133.403L88.4064 134.311L83.0415 135.003L82.9971 126.812L88.0016 126.238L92.851 125.559L102.535 123.502L107.534 122.065L111.651 120.422L115.123 121.957L117.01 123.022L118.899 124.384L115.636 126.684Z" fill="#EA580C"/>
<path d="M34.8767 34.5482L36.117 34.4184L37.1135 34.1093L38.6609 34.1195L40.213 33.9065L41.7657 33.9106L43.4562 33.7535L45.4225 33.7535L45.4225 39.0468L43.5994 38.9408L42.0702 38.7153L39.0177 38.3115L35.2983 37.7996L32.5438 37.2785L30.8688 36.869L29.1938 36.4596L32.0353 35.355L34.8767 34.5482Z" fill="#FED7AA"/>
<path d="M98.4476 119.926L97.208 120.063L96.2132 120.377L94.6658 120.376L93.1149 120.597L91.5622 120.601L89.8725 120.767L87.9063 120.778L87.8776 115.485L89.7013 115.581L91.2317 115.798L94.2863 116.186L98.0084 116.677L100.766 117.183L102.443 117.584L104.12 117.984L101.285 119.104L98.4476 119.926Z" fill="#EA580C"/>
<path d="M46.5616 124.866V121.92H59.2506V124.866H54.6984V136.932H51.1212V124.866H46.5616Z" fill="black"/>
<path d="M59.8535 136.932V125.673H63.3354V127.725H63.4527C63.658 126.983 63.9927 126.43 64.457 126.069C64.9212 125.702 65.4612 125.519 66.077 125.519C66.2431 125.519 66.4142 125.531 66.5901 125.556C66.766 125.575 66.9298 125.607 67.0813 125.651V128.766C66.9102 128.708 66.6854 128.661 66.4069 128.627C66.1332 128.593 65.8888 128.576 65.6738 128.576C65.2487 128.576 64.865 128.671 64.5229 128.862C64.1857 129.047 63.9194 129.309 63.7239 129.646C63.5333 129.978 63.438 130.369 63.438 130.819V136.932H59.8535Z" fill="black"/>
<path d="M71.2926 137.123C70.5742 137.123 69.9364 137.003 69.3793 136.764C68.8271 136.519 68.3897 136.153 68.0672 135.664C67.7495 135.171 67.5907 134.552 67.5907 133.81C67.5907 133.184 67.7007 132.656 67.9206 132.226C68.1405 131.796 68.4435 131.447 68.8296 131.178C69.2156 130.909 69.6603 130.706 70.1637 130.57C70.667 130.428 71.2046 130.333 71.7764 130.284C72.4166 130.225 72.9321 130.164 73.3231 130.1C73.714 130.032 73.9975 129.937 74.1734 129.815C74.3542 129.687 74.4446 129.509 74.4446 129.279V129.243C74.4446 128.866 74.3151 128.576 74.0561 128.37C73.7971 128.165 73.4477 128.063 73.0079 128.063C72.5338 128.063 72.1527 128.165 71.8643 128.37C71.576 128.576 71.3927 128.859 71.3146 129.221L68.0085 129.103C68.1063 128.419 68.358 127.808 68.7636 127.271C69.1741 126.728 69.7361 126.303 70.4496 125.995C71.1679 125.683 72.0305 125.526 73.0372 125.526C73.7556 125.526 74.4178 125.612 75.0237 125.783C75.6297 125.949 76.1575 126.193 76.6071 126.516C77.0567 126.833 77.4037 127.224 77.648 127.689C77.8973 128.153 78.0219 128.683 78.0219 129.279V136.932H74.6499V135.364H74.5619C74.3616 135.745 74.105 136.067 73.7922 136.331C73.4844 136.595 73.1203 136.793 72.7 136.925C72.2846 137.057 71.8155 137.123 71.2926 137.123ZM72.3995 134.777C72.7855 134.777 73.1325 134.699 73.4404 134.543C73.7531 134.386 74.0024 134.171 74.1881 133.898C74.3738 133.619 74.4666 133.296 74.4666 132.93V131.86C74.364 131.913 74.2394 131.962 74.0928 132.006C73.9511 132.05 73.7947 132.092 73.6236 132.131C73.4526 132.17 73.2767 132.204 73.0958 132.234C72.915 132.263 72.7415 132.29 72.5754 132.314C72.2382 132.368 71.9499 132.451 71.7104 132.563C71.4758 132.676 71.295 132.822 71.1679 133.003C71.0458 133.179 70.9847 133.389 70.9847 133.634C70.9847 134.005 71.1166 134.288 71.3805 134.484C71.6493 134.679 71.989 134.777 72.3995 134.777Z" fill="black"/>
<path d="M14.5664 129.111L11.2751 129.199C11.2409 128.964 11.148 128.757 10.9965 128.576C10.845 128.39 10.6471 128.246 10.4028 128.143C10.1633 128.036 9.88476 127.982 9.56711 127.982C9.15172 127.982 8.79742 128.065 8.50421 128.231C8.21588 128.397 8.07416 128.622 8.07904 128.906C8.07416 129.126 8.16212 129.316 8.34294 129.477C8.52864 129.639 8.85851 129.768 9.33254 129.866L11.5023 130.276C12.6263 130.491 13.462 130.848 14.0093 131.347C14.5616 131.845 14.8401 132.505 14.845 133.326C14.8401 134.098 14.6104 134.77 14.1559 135.342C13.7063 135.914 13.0906 136.358 12.3087 136.676C11.5268 136.989 10.6325 137.145 9.62576 137.145C8.01796 137.145 6.7498 136.815 5.82128 136.155C4.89765 135.491 4.36986 134.601 4.23792 133.487L7.7785 133.399C7.85669 133.81 8.05949 134.122 8.38692 134.337C8.71434 134.552 9.13218 134.66 9.64042 134.66C10.0998 134.66 10.4736 134.574 10.762 134.403C11.0503 134.232 11.1969 134.005 11.2018 133.722C11.1969 133.468 11.0845 133.265 10.8646 133.113C10.6447 132.957 10.3002 132.835 9.83101 132.747L7.86646 132.373C6.73758 132.168 5.89703 131.789 5.3448 131.237C4.79258 130.68 4.51891 129.971 4.5238 129.111C4.51891 128.358 4.71928 127.716 5.12489 127.183C5.53051 126.645 6.10717 126.235 6.85487 125.952C7.60257 125.668 8.48466 125.526 9.50114 125.526C11.0259 125.526 12.228 125.846 13.1077 126.487C13.9873 127.122 14.4736 127.997 14.5664 129.111Z" fill="#EA580C"/>
<path d="M19.7839 137.123C19.0655 137.123 18.4277 137.003 17.8706 136.764C17.3184 136.519 16.881 136.153 16.5585 135.664C16.2408 135.171 16.082 134.552 16.082 133.81C16.082 133.184 16.192 132.656 16.4119 132.226C16.6318 131.796 16.9348 131.447 17.3208 131.178C17.7069 130.909 18.1516 130.706 18.655 130.57C19.1583 130.428 19.6959 130.333 20.2677 130.284C20.9078 130.225 21.4234 130.164 21.8144 130.101C22.2053 130.032 22.4888 129.937 22.6647 129.815C22.8455 129.688 22.9359 129.509 22.9359 129.28V129.243C22.9359 128.867 22.8064 128.576 22.5474 128.371C22.2884 128.165 21.939 128.063 21.4992 128.063C21.0251 128.063 20.6439 128.165 20.3556 128.371C20.0673 128.576 19.884 128.859 19.8058 129.221L16.4998 129.104C16.5976 128.419 16.8492 127.809 17.2549 127.271C17.6654 126.729 18.2274 126.303 18.9409 125.995C19.6592 125.683 20.5218 125.526 21.5285 125.526C22.2469 125.526 22.909 125.612 23.515 125.783C24.121 125.949 24.6488 126.193 25.0984 126.516C25.548 126.834 25.895 127.225 26.1393 127.689C26.3885 128.153 26.5132 128.683 26.5132 129.28V136.932H23.1412V135.364H23.0532C22.8528 135.745 22.5963 136.067 22.2835 136.331C21.9756 136.595 21.6116 136.793 21.1913 136.925C20.7759 137.057 20.3068 137.123 19.7839 137.123ZM20.8907 134.777C21.2768 134.777 21.6238 134.699 21.9317 134.543C22.2444 134.386 22.4937 134.171 22.6794 133.898C22.8651 133.619 22.9579 133.297 22.9579 132.93V131.86C22.8553 131.914 22.7307 131.962 22.5841 132.006C22.4423 132.05 22.286 132.092 22.1149 132.131C21.9439 132.17 21.7679 132.204 21.5871 132.234C21.4063 132.263 21.2328 132.29 21.0667 132.314C20.7295 132.368 20.4411 132.451 20.2017 132.564C19.9671 132.676 19.7863 132.823 19.6592 133.003C19.5371 133.179 19.476 133.389 19.476 133.634C19.476 134.005 19.6079 134.289 19.8718 134.484C20.1406 134.68 20.4802 134.777 20.8907 134.777Z" fill="#EA580C"/>
<path d="M35.1044 125.673V128.312H27.8619V125.673H35.1044ZM29.372 136.932V125.101C29.372 124.231 29.5357 123.51 29.8631 122.939C30.1906 122.362 30.6451 121.932 31.2266 121.649C31.8081 121.36 32.4801 121.216 33.2425 121.216C33.7409 121.216 34.2101 121.255 34.6499 121.333C35.0946 121.407 35.4245 121.473 35.6395 121.531L35.0677 124.156C34.9358 124.112 34.7745 124.075 34.5839 124.046C34.3982 124.016 34.2223 124.002 34.0561 124.002C33.6359 124.002 33.3475 124.094 33.1911 124.28C33.0348 124.466 32.9566 124.72 32.9566 125.043V136.932H29.372Z" fill="#EA580C"/>
<path d="M41.7292 137.145C40.5515 137.145 39.535 136.913 38.6798 136.449C37.8295 135.979 37.1746 135.312 36.7152 134.447C36.2607 133.578 36.0335 132.544 36.0335 131.347C36.0335 130.184 36.2632 129.167 36.7226 128.297C37.1819 127.422 37.8294 126.743 38.6651 126.259C39.5008 125.771 40.4855 125.526 41.6193 125.526C42.4207 125.526 43.1538 125.651 43.8184 125.9C44.483 126.149 45.0572 126.518 45.541 127.007C46.0248 127.496 46.4011 128.099 46.6699 128.818C46.9387 129.531 47.0731 130.35 47.0731 131.273V132.168H37.287V130.086H43.7377C43.7329 129.705 43.6425 129.365 43.4665 129.067C43.2906 128.769 43.0487 128.537 42.7408 128.371C42.4378 128.199 42.0884 128.114 41.6926 128.114C41.2918 128.114 40.9327 128.204 40.615 128.385C40.2974 128.561 40.0457 128.803 39.86 129.111C39.6743 129.414 39.5765 129.758 39.5668 130.144V132.263C39.5668 132.722 39.6572 133.126 39.838 133.472C40.0188 133.815 40.2754 134.081 40.6077 134.271C40.94 134.462 41.3358 134.557 41.7952 134.557C42.1128 134.557 42.4012 134.513 42.6602 134.425C42.9192 134.337 43.1415 134.208 43.3272 134.037C43.513 133.866 43.6522 133.656 43.7451 133.407L47.0364 133.502C46.8996 134.24 46.599 134.882 46.1348 135.43C45.6754 135.972 45.0719 136.395 44.3242 136.698C43.5765 136.996 42.7115 137.145 41.7292 137.145Z" fill="#EA580C"/>
<defs>
<linearGradient id="paint0_linear_1013_9870" x1="30.1314" y1="70.1754" x2="-46.0977" y2="-29.8753" gradientUnits="userSpaceOnUse">
<stop stop-color="#FB923C"/>
<stop offset="1" stop-color="#FB923C" stop-opacity="0"/>
</linearGradient>
<linearGradient id="paint1_linear_1013_9870" x1="69.2966" y1="70.6212" x2="177.834" y2="117.818" gradientUnits="userSpaceOnUse">
<stop stop-color="#EA580C"/>
<stop offset="1" stop-color="#EA580C" stop-opacity="0"/>
</linearGradient>
</defs>
</svg>
