<svg width="20" height="20" viewBox="0 0 36 37" fill="none" xmlns="http://www.w3.org/2000/svg">
<path d="M18.3088 13.5565C18.0497 13.5554 17.7949 13.5741 17.5445 13.6103C15.1297 13.9672 13.2222 16.0438 13.2068 18.4981C13.197 20.175 13.936 21.6509 15.1088 22.6019L15.1725 22.6524L15.2055 22.6777C16.0455 23.3256 17.0976 23.7088 18.2506 23.7154C20.996 23.7319 23.335 21.4642 23.3515 18.7705C23.3702 15.8582 21.1585 13.5719 18.3088 13.5565ZM1.13604 13.4313C4.34702 13.4456 7.55798 13.4401 10.769 13.4412C10.8096 13.4412 10.8491 13.4533 10.9491 13.4698C9.25241 16.068 8.84172 18.8265 9.89264 21.7388C10.5856 23.6572 11.8375 25.1529 13.5758 26.228C16.9998 28.3485 21.455 27.8829 24.3651 25.1474C27.2697 22.4185 28.3492 17.6054 25.5467 13.439L28.1614 13.439C30.5619 13.439 32.9636 13.4456 35.3652 13.4313C35.6826 13.4302 35.7682 13.5104 35.7671 13.8321C35.7573 18.9758 35.7682 24.1196 35.7573 29.2632C35.7495 32.9442 32.6253 36.0377 28.9432 36.0388C21.8394 36.0388 14.7355 36.0388 7.63047 36.0388C3.92312 36.0388 0.8055 32.942 0.80111 29.2358C0.793402 24.1064 0.800004 18.978 0.79672 13.8486C0.795614 13.6015 0.782443 13.4291 1.13604 13.4313ZM18.2836 11.7336C22.0656 11.7369 25.1393 14.815 25.158 18.6179C25.1766 22.4416 22.0842 25.523 18.2287 25.5219C14.4412 25.5208 11.363 22.446 11.3455 18.6475C11.329 14.8413 14.4499 11.7314 18.2836 11.7336ZM29.6274 3.80499C29.0091 3.80499 28.3909 3.80938 27.7737 3.81709C27.4761 3.82148 27.2269 3.90931 27.0413 4.06418C26.803 4.26294 26.6679 4.5726 26.6646 4.95256C26.6591 5.57741 26.6624 6.20225 26.6635 6.8282C26.6635 7.45304 26.6569 8.07789 26.6646 8.70273C26.6723 9.37369 27.1159 9.81404 27.7924 9.81733C29.0136 9.82393 30.2358 9.82503 31.4569 9.81733C31.984 9.81404 32.3859 9.51863 32.521 9.064C32.5529 8.9586 32.5693 8.84549 32.5704 8.72579C32.5814 7.46072 32.5803 6.19675 32.5704 4.93279C32.566 4.2805 32.1334 3.82697 31.4811 3.81819C30.8628 3.80938 30.2445 3.80499 29.6274 3.80499ZM10.3549 0.898201C16.5913 0.910299 22.8277 0.900413 29.063 0.909193C32.4145 0.913583 35.4586 3.73253 35.7133 7.07857C35.8407 8.74995 35.7298 10.4279 35.766 12.1037C35.7726 12.3892 35.6277 12.3804 35.4278 12.3793C33.8926 12.376 32.3585 12.3771 30.8244 12.3771C28.907 12.3771 26.9897 12.3727 25.0712 12.3826C24.7736 12.3837 24.5551 12.3134 24.3233 12.0982C20.8554 8.87073 15.5349 8.91138 12.101 12.1827C11.9407 12.3354 11.7837 12.3815 11.575 12.3804C8.10926 12.376 4.6424 12.3771 1.17665 12.3771C0.987776 12.3771 0.784622 12.443 0.79233 12.1048C0.832947 10.4169 0.696785 8.7214 0.856004 7.03903C1.04599 5.0415 2.02442 3.45579 3.61675 2.24454C3.63431 2.23026 3.66618 2.23465 3.74413 2.22259C3.74413 4.5671 3.7518 6.88199 3.73646 9.1958C3.73314 9.52962 3.8188 9.61856 4.15154 9.61089C5.1212 9.59112 5.12231 9.6065 5.12231 8.6478C5.12231 6.34612 5.1212 4.0444 5.12231 1.74379C5.12231 1.43521 5.80536 0.984965 6.0744 1.12334C6.21717 1.19583 6.14247 1.35176 6.14357 1.46704C6.14796 3.72483 6.14686 5.98371 6.14686 8.2426L6.14686 8.54019C6.14686 9.61638 6.14686 9.60539 7.19121 9.60978C7.48552 9.61089 7.57557 9.53512 7.57118 9.23313C7.55469 7.95489 7.56458 6.67665 7.56458 5.39731C7.56458 4.02024 7.58435 2.64096 7.55359 1.26389C7.5437 0.790592 7.83251 0.921291 8.07521 0.907015C8.33547 0.892738 8.54851 0.853193 8.54523 1.27378C8.52217 3.90164 8.54084 6.5295 8.52546 9.15736C8.52324 9.50107 8.59355 9.61967 8.95921 9.61199C9.95085 9.59001 9.95196 9.6076 9.95196 8.61596C9.95196 6.18687 9.95742 3.75777 9.94536 1.3287C9.94314 1.01134 10.0025 0.897129 10.3549 0.898201Z" fill="#212327"/>
</svg>
