<svg width="20" height="20" viewBox="0 0 41 40" fill="none" xmlns="http://www.w3.org/2000/svg">
<path d="M1.28639 13.3319L9.86015 13.3319L9.86015 39.1307L1.28639 39.1307L1.28639 13.3319ZM30.9089 12.7257C36.5452 12.7257 40.7764 16.4144 40.7764 24.3344L40.7764 39.1294L32.2051 39.1294L32.2051 25.3307C32.2051 21.8582 30.9602 19.4969 27.8577 19.4969C25.4901 19.4969 24.0801 21.0932 23.4602 22.6307C23.2314 23.1795 23.1802 23.9519 23.1802 24.7245L23.1802 39.1294L14.6014 39.1294C14.6014 39.1294 14.7164 15.7507 14.6014 13.3319L23.1802 13.3319L23.1802 16.9894C23.1602 17.0145 23.1414 17.047 23.1226 17.0719L23.1802 17.0719L23.1802 16.9894C24.3164 15.2282 26.3514 12.7257 30.9089 12.7257ZM5.62767 0.898193C8.56392 0.898193 10.3702 2.82694 10.4214 5.35445C10.4214 7.83194 8.56392 9.81196 5.5764 9.81196L5.51888 9.81196C2.64015 9.81196 0.776367 7.83194 0.776367 5.35445C0.776367 2.82694 2.69768 0.898193 5.62767 0.898193Z" fill="#212327"/>
</svg>
