<svg width="54" height="63" viewBox="0 0 54 63" fill="none" xmlns="http://www.w3.org/2000/svg">
<path d="M1.42678 9.57227H1.54929L1.6718 10.2461L1.8862 10.8587L2.34563 11.5325L3.99956 13.1864L9.48205 15.7286L14.9645 17.1681L21.2127 17.9338L27.4609 18.332V45.285H21.2127L12.453 43.8761L8.71634 42.5897L4.97967 41.0583L0.814209 37.5054L1.42678 9.57227Z" fill="url(#paint0_linear_1013_9850)"/>
<path d="M27.4644 18.2095L30.9866 18.286L34.5089 18.6076L38.0312 18.9292L41.5534 19.4959L48.4754 21.7011L51.0789 23.2938L53.6823 25.6216V53.6159L52.0283 51.1657L49.3943 49.328L44.555 47.3984L39.7157 46.4489L33.59 45.6219L27.4644 45.285V18.2095Z" fill="url(#paint1_linear_1013_9850)"/>
<path d="M3.38574 7.91896L4.42702 6.20376L6.32619 4.62919L9.26665 3.29963L12.2071 2.39887L15.1476 1.74314L18.3451 1.21687L21.5427 0.813121L21.5426 4.36606L18.5293 4.61664L17.0839 4.93689L15.6385 5.13462L12.7478 5.95888L9.85696 6.66063L6.86633 7.99425L3.99822 10.4305L3.3857 8.99095L3.38574 7.91896Z" fill="#FED7AA"/>
<path d="M51.8178 55.5694L50.7858 57.2902L48.8952 58.875L45.962 60.2205L43.0265 61.1371L40.0896 61.8088L36.895 62.3523L33.6996 62.7734L33.6804 59.2205L36.6923 58.9536L38.1359 58.6256L39.5803 58.42L42.4665 57.5801L45.3535 56.8627L48.3369 55.5129L51.1917 53.0612L51.812 54.4974L51.8178 55.5694Z" fill="#EA580C"/>
<path d="M6.99688 11.0839L8.62274 10.3085L9.92637 9.9145L11.9516 9.21442L13.9796 8.82505L16.009 8.3682L18.2171 8.00675L20.4259 7.73408L20.4259 11.1042L18.3656 11.3289L16.3689 11.5975L12.38 12.4223L10.3201 13.0025L8.62274 13.6693L7.1973 13.0299L6.42332 12.5878L5.64934 12.023L6.99688 11.0839Z" fill="#FED7AA"/>
<path d="M48.1841 52.4241L46.5625 53.2083L45.261 53.6094L43.2396 54.3204L41.2138 54.7207L39.1868 55.1886L36.9808 55.562L34.7735 55.8466L34.7552 52.4765L36.8142 52.2406L38.8095 51.9613L42.7938 51.1149L44.8506 50.5236L46.5443 49.8476L47.9732 50.4792L48.7496 50.9172L49.5266 51.4777L48.1841 52.4241Z" fill="#EA580C"/>
<path d="M14.9566 14.516L15.4669 14.4626L15.8769 14.3354L16.5135 14.3396L17.1521 14.2519L17.791 14.2536L18.4865 14.189L19.2955 14.189L19.2955 16.3669L18.5454 16.3232L17.9163 16.2305L16.6604 16.0643L15.1301 15.8537L13.9968 15.6393L13.3076 15.4709L12.6185 15.3024L13.7875 14.8479L14.9566 14.516Z" fill="#FED7AA"/>
<path d="M41.112 49.6435L40.602 49.6997L40.1927 49.8291L39.5561 49.8283L38.918 49.9194L38.2791 49.9212L37.5839 49.9896L36.7749 49.994L36.7632 47.8162L37.5135 47.8557L38.1431 47.9451L39.3999 48.1044L40.9313 48.3067L42.0658 48.515L42.7558 48.6797L43.4459 48.8445L42.2793 49.3053L41.112 49.6435Z" fill="#EA580C"/>
<path d="M19.7643 51.6768V50.4644H24.985V51.6768H23.112V56.6411H21.6402V51.6768H19.7643Z" fill="black"/>
<path d="M25.233 56.6411V52.0085H26.6656V52.853H26.7139C26.7983 52.5474 26.9361 52.3202 27.1271 52.1714C27.3181 52.0206 27.5403 51.9452 27.7936 51.9452C27.862 51.9452 27.9324 51.9502 28.0047 51.9603C28.0771 51.9683 28.1445 51.9814 28.2068 51.9995V53.2813C28.1364 53.2572 28.044 53.2381 27.9293 53.224C27.8167 53.2099 27.7162 53.2029 27.6277 53.2029C27.4528 53.2029 27.295 53.2421 27.1542 53.3205C27.0155 53.3969 26.9059 53.5045 26.8255 53.6432C26.7471 53.7799 26.7079 53.9408 26.7079 54.1258V56.6411H25.233Z" fill="black"/>
<path d="M29.9395 56.7195C29.6439 56.7195 29.3815 56.6703 29.1523 56.5718C28.9251 56.4712 28.7452 56.3204 28.6125 56.1194C28.4818 55.9163 28.4164 55.6619 28.4164 55.3563C28.4164 55.0989 28.4617 54.8818 28.5521 54.7048C28.6426 54.5279 28.7673 54.3841 28.9261 54.2736C29.085 54.163 29.2679 54.0795 29.475 54.0232C29.6821 53.9649 29.9033 53.9257 30.1386 53.9056C30.402 53.8815 30.6141 53.8563 30.7749 53.8302C30.9358 53.8021 31.0524 53.7629 31.1248 53.7126C31.1992 53.6603 31.2364 53.5869 31.2364 53.4924V53.4773C31.2364 53.3225 31.1831 53.2029 31.0765 53.1184C30.97 53.034 30.8262 52.9918 30.6453 52.9918C30.4502 52.9918 30.2934 53.034 30.1748 53.1184C30.0561 53.2029 29.9807 53.3195 29.9486 53.4683L28.5883 53.42C28.6286 53.1385 28.7321 52.8872 28.899 52.666C29.0679 52.4429 29.2991 52.2679 29.5927 52.1413C29.8882 52.0126 30.2431 51.9482 30.6573 51.9482C30.9529 51.9482 31.2253 51.9834 31.4747 52.0538C31.724 52.1221 31.9411 52.2227 32.1261 52.3554C32.3111 52.4861 32.4538 52.6469 32.5544 52.8379C32.6569 53.029 32.7082 53.2471 32.7082 53.4924V56.6411H31.3208V55.9957H31.2846C31.2022 56.1525 31.0966 56.2852 30.968 56.3938C30.8413 56.5024 30.6915 56.5838 30.5186 56.6381C30.3477 56.6924 30.1546 56.7195 29.9395 56.7195ZM30.3949 55.7544C30.5538 55.7544 30.6965 55.7222 30.8232 55.6579C30.9519 55.5936 31.0544 55.5051 31.1308 55.3925C31.2072 55.2779 31.2454 55.1452 31.2454 54.9944V54.554C31.2032 54.5762 31.1519 54.5963 31.0916 54.6144C31.0333 54.6325 30.969 54.6496 30.8986 54.6656C30.8282 54.6817 30.7558 54.6958 30.6814 54.7079C30.607 54.7199 30.5357 54.731 30.4673 54.741C30.3286 54.7632 30.2099 54.7973 30.1114 54.8436C30.0149 54.8898 29.9405 54.9502 29.8882 55.0245C29.838 55.0969 29.8128 55.1834 29.8128 55.2839C29.8128 55.4367 29.8671 55.5534 29.9757 55.6338C30.0863 55.7142 30.226 55.7544 30.3949 55.7544Z" fill="black"/>
<path d="M6.60025 53.423L5.24607 53.4592C5.23199 53.3627 5.19379 53.2773 5.13146 53.2029C5.06913 53.1265 4.9877 53.0671 4.88716 53.0249C4.78864 52.9807 4.67403 52.9586 4.54334 52.9586C4.37243 52.9586 4.22666 52.9928 4.10602 53.0611C3.98739 53.1295 3.92908 53.222 3.93109 53.3386C3.92908 53.4291 3.96527 53.5075 4.03967 53.5738C4.11607 53.6402 4.25179 53.6935 4.44683 53.7337L5.33956 53.9026C5.80202 53.991 6.14584 54.1378 6.37103 54.3429C6.59824 54.548 6.71285 54.8194 6.71486 55.1572C6.71285 55.4749 6.61835 55.7514 6.43135 55.9866C6.24637 56.2219 5.99303 56.4049 5.67132 56.5355C5.34962 56.6642 4.98166 56.7286 4.56747 56.7286C3.90596 56.7286 3.38419 56.5929 3.00216 56.3214C2.62215 56.048 2.405 55.682 2.35071 55.2236L3.80744 55.1874C3.83961 55.3563 3.92305 55.485 4.05776 55.5734C4.19248 55.6619 4.36439 55.7061 4.5735 55.7061C4.7625 55.7061 4.91632 55.671 5.03495 55.6006C5.15358 55.5302 5.2139 55.4367 5.21591 55.3201C5.2139 55.2155 5.16765 55.1321 5.07717 55.0698C4.98669 55.0054 4.84494 54.9552 4.65191 54.919L3.84363 54.7652C3.37916 54.6807 3.03333 54.5249 2.80612 54.2977C2.57892 54.0685 2.46632 53.7769 2.46833 53.423C2.46632 53.1134 2.54876 52.849 2.71564 52.6298C2.88253 52.4087 3.11979 52.2398 3.42742 52.1231C3.73505 52.0065 4.09798 51.9482 4.5162 51.9482C5.14352 51.9482 5.63815 52.0799 6.00007 52.3433C6.36199 52.6047 6.56205 52.9646 6.60025 53.423Z" fill="#EA580C"/>
<path d="M8.74689 56.7195C8.45132 56.7195 8.18893 56.6703 7.95971 56.5717C7.73251 56.4712 7.55255 56.3204 7.41985 56.1193C7.28915 55.9163 7.22381 55.6619 7.22381 55.3563C7.22381 55.0989 7.26905 54.8818 7.35953 54.7048C7.45001 54.5279 7.57467 54.3841 7.73351 54.2735C7.89235 54.163 8.07533 54.0795 8.28242 54.0232C8.48952 53.9649 8.7107 53.9257 8.94594 53.9056C9.20934 53.8815 9.42147 53.8563 9.58232 53.8302C9.74317 53.802 9.85979 53.7628 9.93217 53.7126C10.0066 53.6603 10.0438 53.5869 10.0438 53.4924V53.4773C10.0438 53.3225 9.99048 53.2029 9.88392 53.1184C9.77735 53.034 9.63359 52.9917 9.45263 52.9917C9.2576 52.9917 9.10076 53.034 8.98213 53.1184C8.86351 53.2029 8.78811 53.3195 8.75594 53.4683L7.39572 53.42C7.43593 53.1385 7.53948 52.8872 7.70637 52.666C7.87526 52.4428 8.10649 52.2679 8.40005 52.1412C8.69562 52.0126 9.0505 51.9482 9.46469 51.9482C9.76026 51.9482 10.0327 51.9834 10.282 52.0538C10.5314 52.1221 10.7485 52.2227 10.9335 52.3554C11.1185 52.4861 11.2612 52.6469 11.3618 52.8379C11.4643 53.0289 11.5156 53.2471 11.5156 53.4924V56.6411H10.1282V55.9957H10.092C10.0096 56.1525 9.90403 56.2852 9.77534 56.3938C9.64867 56.5024 9.49888 56.5838 9.32596 56.6381C9.15505 56.6924 8.96203 56.7195 8.74689 56.7195ZM9.2023 55.7544C9.36115 55.7544 9.5039 55.7222 9.63057 55.6579C9.75926 55.5935 9.8618 55.5051 9.93821 55.3925C10.0146 55.2779 10.0528 55.1452 10.0528 54.9944V54.554C10.0106 54.5762 9.95932 54.5963 9.899 54.6144C9.84069 54.6325 9.77635 54.6495 9.70597 54.6656C9.6356 54.6817 9.56322 54.6958 9.48882 54.7079C9.41443 54.7199 9.34305 54.731 9.27469 54.741C9.13595 54.7631 9.01732 54.7973 8.9188 54.8436C8.82229 54.8898 8.74789 54.9501 8.69562 55.0245C8.64535 55.0969 8.62021 55.1834 8.62021 55.2839C8.62021 55.4367 8.6745 55.5533 8.78308 55.6338C8.89367 55.7142 9.03341 55.7544 9.2023 55.7544Z" fill="#EA580C"/>
<path d="M15.0503 52.0085V53.0943H12.0705V52.0085H15.0503ZM12.6918 56.6411V51.7733C12.6918 51.4154 12.7592 51.1188 12.8939 50.8836C13.0286 50.6463 13.2156 50.4694 13.4549 50.3527C13.6941 50.2341 13.9706 50.1748 14.2843 50.1748C14.4893 50.1748 14.6824 50.1909 14.8633 50.2231C15.0463 50.2532 15.182 50.2804 15.2705 50.3045L15.0352 51.3842C14.981 51.3661 14.9146 51.351 14.8362 51.339C14.7598 51.3269 14.6874 51.3209 14.619 51.3209C14.4461 51.3209 14.3275 51.3591 14.2631 51.4355C14.1988 51.5119 14.1666 51.6165 14.1666 51.7492V56.6411H12.6918Z" fill="#EA580C"/>
<path d="M17.776 56.7286C17.2915 56.7286 16.8732 56.6331 16.5214 56.4421C16.1715 56.249 15.9021 55.9746 15.7131 55.6187C15.5261 55.2608 15.4326 54.8355 15.4326 54.3429C15.4326 53.8644 15.5271 53.4462 15.7161 53.0883C15.9051 52.7284 16.1715 52.4489 16.5153 52.2498C16.8592 52.0487 17.2643 51.9482 17.7308 51.9482C18.0605 51.9482 18.3621 51.9995 18.6356 52.102C18.909 52.2046 19.1453 52.3564 19.3444 52.5574C19.5434 52.7585 19.6982 53.0068 19.8088 53.3024C19.9194 53.596 19.9747 53.9327 19.9747 54.3128V54.6807H15.9483V53.8242H18.6024C18.6004 53.6673 18.5632 53.5276 18.4908 53.4049C18.4184 53.2823 18.3189 53.1868 18.1922 53.1184C18.0676 53.048 17.9238 53.0129 17.761 53.0129C17.5961 53.0129 17.4483 53.0501 17.3176 53.1245C17.1869 53.1968 17.0834 53.2964 17.007 53.423C16.9305 53.5477 16.8903 53.6894 16.8863 53.8483V54.7199C16.8863 54.9089 16.9235 55.0748 16.9979 55.2176C17.0723 55.3583 17.1779 55.4679 17.3146 55.5463C17.4513 55.6247 17.6142 55.6639 17.8032 55.6639C17.9339 55.6639 18.0525 55.6458 18.1591 55.6096C18.2656 55.5734 18.3571 55.5202 18.4335 55.4498C18.5099 55.3794 18.5672 55.293 18.6054 55.1904L19.9596 55.2296C19.9033 55.5332 19.7797 55.7976 19.5886 56.0228C19.3996 56.246 19.1513 56.4199 18.8437 56.5446C18.5361 56.6672 18.1802 56.7286 17.776 56.7286Z" fill="#EA580C"/>
<defs>
<linearGradient id="paint0_linear_1013_9850" x1="13.0043" y1="29.1745" x2="-18.3592" y2="-11.9901" gradientUnits="userSpaceOnUse">
<stop stop-color="#FB923C"/>
<stop offset="1" stop-color="#FB923C" stop-opacity="0"/>
</linearGradient>
<linearGradient id="paint1_linear_1013_9850" x1="29.1183" y1="29.3582" x2="73.7745" y2="48.7766" gradientUnits="userSpaceOnUse">
<stop stop-color="#EA580C"/>
<stop offset="1" stop-color="#EA580C" stop-opacity="0"/>
</linearGradient>
</defs>
</svg>
