<svg width="20" height="20" viewBox="0 0 46 36" fill="none" xmlns="http://www.w3.org/2000/svg">
<path d="M31.9321 0.898193C34.5871 0.898193 36.9862 1.96364 38.6708 3.67032C40.7732 3.27685 42.7504 2.54656 44.5335 1.53941C43.8444 3.59098 42.3805 5.31061 40.4736 6.3971C42.3412 6.18501 44.1215 5.71379 45.7766 5.01429C44.5391 6.77602 42.974 8.32242 41.1697 9.55949C41.188 9.93677 41.1964 10.3157 41.1964 10.6962C41.1964 22.2981 31.9096 35.6778 14.9291 35.6778C9.71474 35.6778 4.86317 34.2238 0.776611 31.7318C1.49942 31.8127 2.2349 31.8548 2.9788 31.8548C7.30442 31.8548 11.2855 30.4509 14.4439 28.0966C10.4052 28.0253 6.99506 25.4863 5.82083 21.9985C6.38474 22.1021 6.96271 22.1572 7.55755 22.1572C8.39989 22.1572 9.21552 22.0487 9.98896 21.8479C5.76599 21.0415 2.58365 17.4938 2.58365 13.24C2.58365 13.2028 2.58365 13.1656 2.58505 13.1299C3.82958 13.7874 5.25411 14.1808 6.76724 14.2278C4.28943 12.6522 2.65959 9.96593 2.65959 6.91853C2.65959 5.31061 3.11521 3.80149 3.90974 2.50609C8.46318 7.8172 15.2652 11.3115 22.9391 11.6791C22.7816 11.0363 22.7 10.3659 22.7 9.67769C22.7 4.8297 26.833 0.898193 31.9321 0.898193Z" fill="#212327"/>
</svg>
